<svg id="_9af98f83-10c5-4067-bc84-20554b2827d8" data-name="9af98f83-10c5-4067-bc84-20554b2827d8" xmlns="http://www.w3.org/2000/svg" xmlns:xlink="http://www.w3.org/1999/xlink" viewBox="0 0 449.7 693.82"><defs><style>.cls-1,.cls-10{fill:#2ab4ff;}.cls-1,.cls-12,.cls-4,.cls-7{opacity:0.1;}.cls-1,.cls-11,.cls-12,.cls-4{isolation:isolate;}.cls-2{fill:url(#linear-gradient);}.cls-3{fill:#efb7b9;}.cls-5{fill:#dce6f2;}.cls-6{fill:#965d7b;}.cls-8{fill:#444053;}.cls-9{fill:#a36468;}.cls-11{opacity:0.05;}.cls-12{fill:#fff;}</style><linearGradient id="linear-gradient" x1="318.09" y1="303.63" x2="630.35" y2="303.63" gradientTransform="matrix(1, 0, 0, -1, -95.23, 736.97)" gradientUnits="userSpaceOnUse"><stop offset="0" stop-color="gray" stop-opacity="0.25"/><stop offset="0.54" stop-color="gray" stop-opacity="0.12"/><stop offset="1" stop-color="gray" stop-opacity="0.1"/></linearGradient></defs><title>bow</title><ellipse class="cls-1" cx="176.1" cy="645.16" rx="176.1" ry="33.36"/><path class="cls-2" d="M535.12,361.74l-30.63-20.65h0l15.45-23L439,311.64,410,334.12l-36.39-20.4-30.35,3.65-.36-8a226,226,0,0,0-2.51-24.9c.13-2.5.22-5.37.21-8.49,0-13.15-1.78-30.58-9.6-42.2l1.8-16.18-14.6-17.25a109.94,109.94,0,0,1,8-13.46c.5-.72,1-1.42,1.54-2.1a36.31,36.31,0,0,0,33.9-36,23,23,0,0,0-.1-2.63,9.52,9.52,0,0,0-.11-1.06l5.59,3c.35.5.75,1,1.19,1.59h0l.09.11.56.69.18.21c.2.24.41.47.62.71l.14.16c.53.59,1.09,1.19,1.69,1.78a1.8,1.8,0,0,1,.2.19l.75.7.21.19c.64.57,1.32,1.12,2,1.64l.22.16.86.59.28.18,1,.6.12.07c.39.21.79.41,1.19.6l.2.08,1,.42.31.11c.35.12.69.23,1.05.33l.22.06c.44.11.88.2,1.33.27h.05a10.88,10.88,0,0,0,1.28.13H384a11,11,0,0,0,1.15,0h.25a11.39,11.39,0,0,0,1.43-.17,15.61,15.61,0,0,0,6.3-2.26,5.58,5.58,0,0,0,1.28-1.19c2-2.62-.2-5.49-.2-5.49h0c-.78-1.86-5.84-3.17-5.84-3.17s-16-6.68-16-12-4-32.92-45.29-39.23c0,0-26.86-1.51-34.41,12.87l-.16,1.68c-2.22,1.39-4.06,4.18-6.25,5a10,10,0,0,0-2.71,1v-.19h0a2.62,2.62,0,0,0-.61.79,8.1,8.1,0,0,0-.83,3,11.45,11.45,0,0,1-1.31,3.63,8.07,8.07,0,0,1-.6.92h0l-.17.27a7.33,7.33,0,0,0,3.4-.55,17.24,17.24,0,0,1-1,4,3.33,3.33,0,0,0,3.08-1.84v-.08l.13-.18a8.44,8.44,0,0,0,.62-1.45l-.11.12c.2-.65.38-1.31.6-2a3.11,3.11,0,0,1,.49-1,2.41,2.41,0,0,1,2.07-.69l-.41,8.67h.18a12.21,12.21,0,0,1-.88,1.82c-1.42,2.3-4,3.87-5,6.39a9.33,9.33,0,0,0-.46,3.78c0,.75.09,1.51.15,2.26v-.06c.14,2,.18,3.9-.9,5.51-.74,1.1-1.93,1.93-2.34,3.18a3.28,3.28,0,0,0-.15,1.08,12.09,12.09,0,0,0,.68,3.21v-.06a4.84,4.84,0,0,1,.17,2.36c-.45,2-2.88,3.67-2.76,5.58a2.08,2.08,0,0,0,.11.74,4.08,4.08,0,0,0,2.26,2,8.74,8.74,0,0,0,5.08,1.12,6.79,6.79,0,0,0,1.9-.65c-.7,1.61-1.42,3.2-2.15,4.71-.11.24-.23.48-.35.72,0,0-6.18-4.13-9.69,4.29a18.69,18.69,0,0,0-2.17,5.64,13.61,13.61,0,0,1-.74,2.32,14.94,14.94,0,0,1-6.68,6c-7.16,3.28-36.08,39.35-36.59,48.69a54.63,54.63,0,0,1-1.84,10.78,64.12,64.12,0,0,0-1.72,25.49,48.89,48.89,0,0,0,1.77,8.13C229.92,294.54,232,312,232,312l3.32,30.22a86.83,86.83,0,0,0,.54,12.49c-3.39,3.87-17,20-11.8,24.39,4,3.46,11,2.89,14.93,2.18-3.31,8.19-8.52,22.43-9.21,32.21-1,14.47,1.71,33.64,6,41s18.59,26.24,18.59,26.24-.67,25.9,4.44,35.31S266,544.92,266,544.92s4.77,16.48,2.38,22.54,4.43,11.1-2.73,15.13-16.32,94.86-16.32,94.86-3.69,59.53,0,62.56a4,4,0,0,0,.63.37v20s-2.56,4.2,7.85,5c7.13.57,27.34,1.86,39.33,2.61l9.29.58s22,4.38,31.72,0,26.95-4.28,24.39-15.85a32.72,32.72,0,0,0-1.36-4.63c-2.81-7.18-7.58-8-16.37-10-.51-.11-1-.21-1.45-.29-9.26-1.61-12.3,2.7-17.49-2.91-4.51-4.85-18.87-10.28-23.76-12,.12-.36.27-.71.39-1.08a7.28,7.28,0,0,1-3.71-1.81l13.25.84,7.89.49s18.7,3.73,27,0,22.9-3.63,20.72-13.46a28.23,28.23,0,0,0-1.15-3.94c-2.39-6.1-6.45-6.77-13.92-8.46-.43-.09-.83-.18-1.23-.25-7.87-1.37-10.45,2.29-14.86-2.47-3.78-4.06-15.71-8.61-20-10.16,0-2.22-3-5.38-4.89-8.55-2.22-3.7,1.88-16.65,1.88-16.65l2.34-53.73a10.09,10.09,0,0,1,2.8-.8s10.58-10.1,8.19-20.86a68.78,68.78,0,0,1-.76-9.83c3.48-3.23,8.27-8,9.63-10.94,2.22-4.79,0-28,0-28V444.53l17.7,1.79L369.39,448l4.89.5,16.06,1.62,36.91,3.73,33.26-6.3,14.39-2.72,29.59-5.6V366.8ZM291.51,121.83l-2.06-.22C290.13,121.64,290.85,121.77,291.51,121.83Z" transform="translate(-178.03 -96.11)"/><path class="cls-3" d="M463.33,408.75c-10,14.31-45.95,6.73-45.95,6.73l-27.86-26.07-3.75-3.53,6.29-13.36s2,.55,5.43,1.53C415.5,379.28,471.77,396.72,463.33,408.75Z" transform="translate(-178.03 -96.11)"/><path class="cls-4" d="M397.47,374.05c-1.23,4.28-4.6,10.69-8,15.36l-3.75-3.53,6.29-13.36S394.08,373.07,397.47,374.05Z" transform="translate(-178.03 -96.11)"/><path class="cls-5" d="M301.92,223.39s-25.68,11.39-24.42,39.36a461.88,461.88,0,0,0,5.88,53.76S278.13,358.6,300,369.45s42.09,19.77,42.09,19.77,34.2,3.68,38.45,5.2,17.53-21.72,15.08-25.34-33.84-11.21-37.84-17.25-13.25-9.77-13.25-9.77-9.55-5.78-10.2-11,1.87-9.11,2.51-11.4,2.26-24.4,2.26-24.4S349.87,216.56,301.92,223.39Z" transform="translate(-178.03 -96.11)"/><path class="cls-4" d="M318.87,315.36s-35.23,5.9-31.82,18.23C287.05,333.59,299.84,320.28,318.87,315.36Z" transform="translate(-178.03 -96.11)"/><path class="cls-4" d="M319.14,320.35S299.77,336.16,303.56,337,319.14,320.35,319.14,320.35Z" transform="translate(-178.03 -96.11)"/><path class="cls-4" d="M328.45,325.86s-5.19,10.63-2,9.91S328.45,325.86,328.45,325.86Z" transform="translate(-178.03 -96.11)"/><path class="cls-4" d="M398.77,375.18l-2.14-.61c.61-2,.78-3.62.28-4.37-2.45-3.62-33.82-11.2-37.81-17.25s-13.25-9.77-13.25-9.77-9.55-5.78-10.2-11,1.87-9.11,2.51-11.4,2.26-24.41,2.26-24.41,10.75-78.69-37.2-71.86c0,0-25.68,11.4-24.43,39.37a459.74,459.74,0,0,0,5.89,53.76s-5.25,42.09,16.61,52.94,42.09,19.77,42.09,19.77,34.19,3.67,38.45,5.2c1.61.58,4.52-2.41,7.37-6.52l1.62,1.51,27.86,26.06s35.95,7.59,45.95-6.72C473.08,397.84,416.82,380.4,398.77,375.18Z" transform="translate(-178.03 -96.11)"/><path class="cls-6" d="M287.14,118.41a8.35,8.35,0,0,0-2.77,1.07c-1,.83-1,2.25-1.25,3.49a11.49,11.49,0,0,1-2,4.78,7.29,7.29,0,0,0,3.33-.55,17.24,17.24,0,0,1-1,4,3.24,3.24,0,0,0,3-1.83,19,19,0,0,0,1.25-3.51,2.89,2.89,0,0,1,.48-1c.92-1.09,2.63-.6,4.05-.46a6.65,6.65,0,0,0,6.08-2.92c1.51-2.29,1.6-8.15-2-8.77C292.55,112.09,290.21,117.27,287.14,118.41Z" transform="translate(-178.03 -96.11)"/><g class="cls-7"><path d="M284.27,120.71c.09-.49.15-1,.26-1.49h0c-.95.83-1,2.24-1.25,3.49a11,11,0,0,1-.59,2.11A11.44,11.44,0,0,0,284.27,120.71Z" transform="translate(-178.03 -96.11)"/><path d="M284.59,129a16.75,16.75,0,0,0,1-4,7.18,7.18,0,0,1-3.17.55,12,12,0,0,1-1.15,2,7.14,7.14,0,0,0,3.32-.54,16.75,16.75,0,0,1-1,4,3.26,3.26,0,0,0,3-1.83,7.21,7.21,0,0,0,.6-1.43A3,3,0,0,1,284.59,129Z" transform="translate(-178.03 -96.11)"/><path d="M293.37,122.17c-1.42-.14-3.14-.63-4.06.46a3.08,3.08,0,0,0-.48,1c-.09.26-.17.53-.24.8,1-.75,2.49-.35,3.78-.22a6.67,6.67,0,0,0,6.08-2.92,5.72,5.72,0,0,0,.67-1.57A6.67,6.67,0,0,1,293.37,122.17Z" transform="translate(-178.03 -96.11)"/></g><polygon class="cls-5" points="139.21 104.89 154.46 123.22 152.47 141.74 134.04 112.89 139.21 104.89"/><polygon class="cls-4" points="154.45 123.22 152.58 140.63 152.46 141.74 135.83 115.69 134.04 112.89 134.56 112.08 139.2 104.89 140.23 106.13 154.45 123.22"/><path class="cls-3" d="M340.4,176.17c-5.16,1.48-10.09,6.56-14.38,12.73a109.55,109.55,0,0,0-7.76,13.34c-1.41,2.82-2.65,5.53-3.68,7.89l-.72,1.68c-1.74,4.11-2.71,6.86-2.71,6.86S271.65,189,277.9,187c2.1-.67,4.86-5.17,7.59-10.84l.34-.72c1.73-3.64,3.43-7.7,4.94-11.52,3.09-7.85,5.38-14.67,5.38-14.67S356.15,171.67,340.4,176.17Z" transform="translate(-178.03 -96.11)"/><path class="cls-8" d="M364,147.55s9.12,16.5,21.37,14.25,7.21-8.86,7.21-8.86Z" transform="translate(-178.03 -96.11)"/><path class="cls-9" d="M346.36,718.7c-8.08,3.69-26.35,0-26.35,0l-7.7-.48c-10-.64-26.74-1.72-32.66-2.2-8.64-.71-6.52-4.25-6.52-4.25V690.38l41.92-10.62s16.57,5.67,21.11,10.62c4.31,4.72,6.83,1.09,14.52,2.45.38.07.78.15,1.2.25,7.3,1.67,11.26,2.33,13.6,8.38a27.63,27.63,0,0,1,1.13,3.9C368.77,715.1,354.43,715,346.36,718.7Z" transform="translate(-178.03 -96.11)"/><path class="cls-4" d="M365.48,701.46a30.89,30.89,0,0,1-4.72,2.42c-5.5,2.51-10.73,5.57-16.29,7.94s-11.55,4.06-17.57,3.61c-3.15-.23-6.37-1-9.38-.1a21.78,21.78,0,0,0-5.21,2.89c-10-.64-26.74-1.72-32.66-2.2-8.64-.71-6.52-4.25-6.52-4.25v-2.5c.31,0,.66-.09,1.06-.12a18.84,18.84,0,0,1,6.1.91c4.34,1.18,8.66,2.34,13,3.5a10.27,10.27,0,0,1,5-6.38,16,16,0,0,1,8.06-1.85c6.73.09,13.1,3.28,19.82,3.6a10.9,10.9,0,0,0,5.49-.92c.92-.46,1.73-1.13,2.63-1.64a19.05,19.05,0,0,1,4.53-1.53,99.7,99.7,0,0,0,12.95-4.18c1.2-.47,2.6-1.32,2.44-2.6-.21-1.7-2.88-1.9-3.58-3.46a2,2,0,0,1,.08-1.77c.38.07.78.15,1.2.25C359.18,694.75,363.14,695.41,365.48,701.46Z" transform="translate(-178.03 -96.11)"/><path class="cls-9" d="M337.82,765.5c-9.5,4.34-31,0-31,0l-9.05-.53c-11.72-.75-31.46-2-38.43-2.59-10.17-.84-7.67-5-7.67-5V732.17L301,719.67s19.5,6.67,24.84,12.5c5.07,5.55,8,1.28,17.09,2.88.45.08.92.18,1.41.29,8.59,2,13.25,2.75,16,9.87a31.71,31.71,0,0,1,1.33,4.59C364.15,761.26,347.32,761.17,337.82,765.5Z" transform="translate(-178.03 -96.11)"/><path class="cls-4" d="M360.32,745.21a37.26,37.26,0,0,1-5.55,2.85c-6.47,3-12.63,6.55-19.17,9.34s-13.59,4.77-20.68,4.25c-3.7-.27-7.49-1.2-11-.12a25.44,25.44,0,0,0-6.15,3.44c-11.72-.75-31.46-2-38.43-2.59-10.17-.84-7.67-5-7.67-5v-2.94c.41-.07.83-.11,1.25-.14a22.13,22.13,0,0,1,7.18,1.07l15.29,4.12a12.11,12.11,0,0,1,5.93-7.51,18.65,18.65,0,0,1,9.49-2.18c7.92.11,15.41,3.86,23.32,4.24a13,13,0,0,0,6.44-1.07c1.09-.55,2-1.34,3.1-1.93a21.75,21.75,0,0,1,5.33-1.8,118.61,118.61,0,0,0,15.16-4.92c1.41-.56,3.06-1.56,2.87-3.06-.25-2-3.39-2.24-4.22-4.08a2.41,2.41,0,0,1,.1-2.08c.45.08.92.18,1.41.29C352.91,737.31,357.57,738.09,360.32,745.21Z" transform="translate(-178.03 -96.11)"/><path class="cls-8" d="M316.32,592.51l-2.67,62.83s-4,12.83-1.83,16.5,5.83,7.33,4.5,9.5S299,707,293.82,698s-10.27-48-10.27-48l4.77-48.17Z" transform="translate(-178.03 -96.11)"/><path class="cls-8" d="M327.9,436l7.42,9.92v86.28s2.17,23,0,27.75-13.17,14.25-13.17,14.25l-9.25-47.5,2-50.25Z" transform="translate(-178.03 -96.11)"/><path class="cls-4" d="M316.32,592.51l-2.67,62.83s-4,12.83-1.83,16.5,5.83,7.33,4.5,9.5S299,707,293.82,698s-10.27-48-10.27-48l4.77-48.17Z" transform="translate(-178.03 -96.11)"/><path class="cls-4" d="M327.9,436l7.42,9.92v86.28s2.17,23,0,27.75-13.17,14.25-13.17,14.25l-9.25-47.5,2-50.25Z" transform="translate(-178.03 -96.11)"/><path class="cls-8" d="M335.32,399.17v46.67L327,482.17s-2.67,87.67-.34,98.33-8,20.67-8,20.67-6,.67-6,5.33-10,18-10,18l.33,26s4.34,48.67-2.33,58S303,719.17,303,719.17c-8.33,27.33-48.33,21-51.94,18s0-62,0-62,8.94-90,15.94-94,.34-9,2.67-15-2.33-22.33-2.33-22.33-2-19.34-7-28.67-4.34-35-4.34-35-14-18.67-18.16-26S231,427.84,232,413.5c.68-9.69,5.77-23.8,9-31.92,1.55-3.89,2.67-6.41,2.67-6.41l.95.25,54.62,14.3Z" transform="translate(-178.03 -96.11)"/><path class="cls-4" d="M340.4,176.17c-5.16,1.48-10.09,6.56-14.38,12.73H324.9a35.71,35.71,0,0,1-31-17.93,35.29,35.29,0,0,1-3.14-7.15c3.09-7.85,5.38-14.67,5.38-14.67S356.15,171.67,340.4,176.17Z" transform="translate(-178.03 -96.11)"/><path class="cls-3" d="M360.65,151.17a35.75,35.75,0,1,1-66.88-17.52,34.72,34.72,0,0,1,3.78-5.46,36.3,36.3,0,0,1,8.22-7.22,35.75,35.75,0,0,1,54.83,27.58C360.62,149.43,360.65,150.3,360.65,151.17Z" transform="translate(-178.03 -96.11)"/><path class="cls-4" d="M330.61,236.75l-.12,1.1-16.63-26c-1.74,4.11-2.71,6.86-2.71,6.86S271.65,189,277.9,187c2.1-.67,4.86-5.17,7.59-10.84l.34-.72c2.9,8.64,19.75,25.91,26.76,32.83.81.8,1.48,1.46,2,1.94l1.07,1,.56.56C318.77,214.37,329.53,226,330.61,236.75Z" transform="translate(-178.03 -96.11)"/><path class="cls-5" d="M343,325l-1.82,58.57L340.9,394s-21.56-2-41.68-4.2C283,388,267.75,386.09,265.4,385c-3-1.41-9.43-2.5-14.5-3.19-3.92-.53-7-.81-7-.81s-1.15.34-2.92.66c-3.86.7-10.64,1.27-14.59-2.16-5-4.39,8.22-20.34,11.53-24.17l.73-.83-1.25-11.55L234.15,313s-2-17.25-5-26.5a49.11,49.11,0,0,1-1.73-8.05,64.64,64.64,0,0,1,1.68-25.26,55.42,55.42,0,0,0,1.8-10.69c.5-9.25,28.75-45,35.75-48.25a14.87,14.87,0,0,0,7.16-7.14A13.67,13.67,0,0,0,274.9,184c3-13,10.59-7.84,10.59-7.84,1.83,10.17,30.16,37.09,30.16,37.09l.56.56c2.81,2.88,15.33,16.4,14.44,27.94a33.75,33.75,0,0,0,1.89,12.64,213.63,213.63,0,0,1,9.85,56Z" transform="translate(-178.03 -96.11)"/><path class="cls-4" d="M302.9,255.42s-7,17-12.25,19.75S305.4,281,302.9,255.42Z" transform="translate(-178.03 -96.11)"/><path class="cls-4" d="M308.15,287.17s-16,2-16,5S308.15,287.17,308.15,287.17Z" transform="translate(-178.03 -96.11)"/><path class="cls-4" d="M324.9,306.67s-23.25,49.5-29.75,51S324.9,306.67,324.9,306.67Z" transform="translate(-178.03 -96.11)"/><path class="cls-4" d="M315.21,215.73,296,224.09,272.77,189a13.67,13.67,0,0,0,1.09-3.11c3-13,10.59-7.84,10.59-7.84,1.83,10.17,30.16,37.09,30.16,37.09Z" transform="translate(-178.03 -96.11)"/><path class="cls-5" d="M316.21,213.73,297,222.09,273.77,187a13.67,13.67,0,0,0,1.09-3.11c3-13,10.59-7.84,10.59-7.84,1.83,10.17,30.16,37.09,30.16,37.09Z" transform="translate(-178.03 -96.11)"/><path class="cls-4" d="M340.9,394s-21.56-2-41.68-4.2l36.1,9.45v11c-1.58,1.43-2.95,2.17-3.84,1.79-4.16-1.75-38.11-7.25-38.11-7.25s-19.72-10-41-22a16.43,16.43,0,0,1-1.5-.94,23.64,23.64,0,0,1-6.3-6.31c-3.93-5.69-5.85-13-6.68-20.17a86.81,86.81,0,0,1-.52-12.38,100.9,100.9,0,0,1,1.28-14,459.69,459.69,0,0,1-3-54c.25-28,26.5-38,26.5-38,48.25-4.25,33.29,73.75,33.29,73.75s-2.79,22-3.55,24.25-3.49,6-3.12,11.25,9.59,11.53,9.59,11.53,9,4.22,12.71,10.47c2.7,4.61,20.24,10.86,30.15,15.32Z" transform="translate(-178.03 -96.11)"/><path class="cls-4" d="M357.06,129a11.24,11.24,0,0,1-1,4.78,29.55,29.55,0,0,1-1.78,3.56,16.4,16.4,0,0,1-4.38,5.44c-2.31,1.65-5.23,2.11-8,2.78s-5.65,1.74-7.23,4.1a14.28,14.28,0,0,0-1.69,4.9,10.47,10.47,0,0,1-2,4.74,3.92,3.92,0,0,1-4.68,1.12,4.69,4.69,0,0,1-1.81-2.33c-1.14-2.57-1.43-5.42-1.89-8.19s-1.11-5.62-2.81-7.85-4.71-3.7-7.38-2.83a7.12,7.12,0,0,0-4,3.88,22,22,0,0,0-1.51,5.52q-1.86,10.18-4.39,20.24a1.84,1.84,0,0,1-.33.76,1.44,1.44,0,0,1-1,.42c-2.24.3-4.39-1.27-6.65-1.1a4.13,4.13,0,0,0-.69.11,35.73,35.73,0,0,1,3.61-40.8l.18-.05a10.7,10.7,0,0,0,4-2.52,42,42,0,0,0,4-4.63l.8-1a45.61,45.61,0,0,1,7.8-7.41,8.18,8.18,0,0,1,2.66-1.44,7.89,7.89,0,0,1,2.52-.08,64.66,64.66,0,0,0,10.41.39,66.29,66.29,0,0,1,7.31-.74c6.33.18,11.73,4.65,15.73,9.55C355,122.8,356.93,125.69,357.06,129Z" transform="translate(-178.03 -96.11)"/><path class="cls-6" d="M289.1,134.6c-1.39,2.28-3.9,3.83-4.84,6.33-1.38,3.63.95,8.15-1.19,11.39-.71,1.09-1.88,1.9-2.28,3.15-.68,2.11,1.18,4.36.7,6.53s-3.34,4-2.58,6.12a4,4,0,0,0,2.2,2,8.58,8.58,0,0,0,5,1.11c2.73-.45,4.76-3.13,7.53-3.33,2.25-.16,4.4,1.4,6.64,1.11a1.5,1.5,0,0,0,1-.43,1.73,1.73,0,0,0,.33-.76q2.52-10,4.4-20.24a22,22,0,0,1,1.5-5.52,7.19,7.19,0,0,1,4-3.88c2.67-.86,5.67.6,7.38,2.83s2.36,5.08,2.82,7.85.75,5.62,1.88,8.19a4.78,4.78,0,0,0,1.82,2.34c1.5.87,3.52.18,4.67-1.12a10.46,10.46,0,0,0,2-4.75,14.16,14.16,0,0,1,1.69-4.89c1.58-2.36,4.47-3.43,7.23-4.1s5.67-1.14,8-2.79a16.6,16.6,0,0,0,4.38-5.43c1.48-2.58,2.86-5.38,2.74-8.35-.13-3.24-2.05-6.13-4.1-8.65-4-4.9-9.41-9.37-15.74-9.54a61.78,61.78,0,0,0-7.31.74,62.4,62.4,0,0,1-10.41-.4,8.19,8.19,0,0,0-2.52.09,7.69,7.69,0,0,0-2.65,1.44,45.24,45.24,0,0,0-7.81,7.4,55.8,55.8,0,0,1-4.82,5.6,10.85,10.85,0,0,1-4,2.53c-1,.28-2,.08-2.95.39C290.86,128.49,290.47,132.34,289.1,134.6Z" transform="translate(-178.03 -96.11)"/><path class="cls-4" d="M385.4,161.79c-8,1.47-14.63-5-18.3-9.72a38.62,38.62,0,0,1-3.07-4.52l27.46,5.18,1.11.21S397.65,159.55,385.4,161.79Z" transform="translate(-178.03 -96.11)"/><g class="cls-7"><path d="M281.49,159.14a8.4,8.4,0,0,0-.58-3.84c0,.1-.09.2-.12.3-.43,1.34.15,2.73.52,4.12A3,3,0,0,0,281.49,159.14Z" transform="translate(-178.03 -96.11)"/><path d="M283.87,142.77a22.14,22.14,0,0,0,.08,4.15A22.14,22.14,0,0,0,283.87,142.77Z" transform="translate(-178.03 -96.11)"/><path d="M353.32,133.42a16.4,16.4,0,0,1-4.38,5.44c-2.31,1.65-5.22,2.11-8,2.78s-5.65,1.74-7.23,4.1a14.49,14.49,0,0,0-1.69,4.9,10.46,10.46,0,0,1-2,4.75c-1.15,1.3-3.17,2-4.67,1.12a4.78,4.78,0,0,1-1.82-2.34c-1.13-2.57-1.43-5.41-1.88-8.19s-1.12-5.62-2.82-7.85-4.71-3.7-7.38-2.83a7.15,7.15,0,0,0-4,3.88,22,22,0,0,0-1.5,5.52q-1.87,10.19-4.4,20.24a1.73,1.73,0,0,1-.33.76,1.5,1.5,0,0,1-1,.43c-2.24.29-4.39-1.27-6.64-1.11-2.77.2-4.8,2.88-7.53,3.32a8.41,8.41,0,0,1-5-1.11,5.28,5.28,0,0,1-1.83-1.3,2.72,2.72,0,0,0-.37,2.33,3.9,3.9,0,0,0,2.2,2,8.41,8.41,0,0,0,5,1.11c2.73-.44,4.76-3.12,7.53-3.32,2.25-.16,4.4,1.4,6.64,1.11a1.5,1.5,0,0,0,1-.43,1.73,1.73,0,0,0,.33-.76q2.52-10,4.4-20.24a22,22,0,0,1,1.5-5.52,7.15,7.15,0,0,1,4-3.88c2.67-.87,5.67.6,7.38,2.83s2.36,5.08,2.82,7.85.75,5.62,1.88,8.19a4.78,4.78,0,0,0,1.82,2.34c1.5.87,3.52.18,4.67-1.12a10.46,10.46,0,0,0,2-4.75,14.49,14.49,0,0,1,1.69-4.9c1.58-2.36,4.47-3.42,7.23-4.1s5.67-1.13,8-2.78a16.4,16.4,0,0,0,4.38-5.44c1.48-2.57,2.86-5.37,2.74-8.34a11,11,0,0,0-.12-1.14A19.62,19.62,0,0,1,353.32,133.42Z" transform="translate(-178.03 -96.11)"/></g><path class="cls-4" d="M356.1,133.72a35.45,35.45,0,0,1,4.45,14.85c-8.91-5-17.29-10.49-21.52-12.4-7.37-3.33-34.93-2.83-45.29-2.52a34.72,34.72,0,0,1,3.78-5.46,36.21,36.21,0,0,1,8.25-7.22,35.77,35.77,0,0,1,49.37,11c.35.56.69,1.13,1,1.7Z" transform="translate(-178.03 -96.11)"/><path class="cls-4" d="M387.9,157.55c-4.81,1.48-12.66-1.38-20.8-5.48a38.62,38.62,0,0,1-3.07-4.52l27.46,5.18C393.31,154,393.77,155.74,387.9,157.55Z" transform="translate(-178.03 -96.11)"/><path class="cls-8" d="M327,99.05s-26.25-1.5-33.63,12.75l-1.19,12.63-2-.22-.4,8.59s40.12-1.75,49.25,2.37,37.5,24.88,48.87,21.38-1-6.75-1-6.75-15.65-6.63-15.65-11.83S367.4,105.3,327,99.05Z" transform="translate(-178.03 -96.11)"/><path class="cls-4" d="M276.4,567.25s16.75,16.25,24,15C300.4,582.25,279.9,580.5,276.4,567.25Z" transform="translate(-178.03 -96.11)"/><path class="cls-4" d="M272.9,574.78s1.5,8.36,5.5,7.54S272.9,574.78,272.9,574.78Z" transform="translate(-178.03 -96.11)"/><path class="cls-4" d="M299.15,714.5s-23.78,18.5-19.77,19S299.15,714.5,299.15,714.5Z" transform="translate(-178.03 -96.11)"/><polygon class="cls-10" points="152.93 251.22 229.93 238.69 229.93 311.58 156.77 307.75 152.93 251.22"/><polygon class="cls-11" points="152.93 251.22 229.93 238.69 229.93 311.58 156.77 307.75 152.93 251.22"/><polygon class="cls-10" points="229.93 238.69 322.27 245.59 317.16 309.04 229.93 311.58 229.93 238.69"/><polygon class="cls-4" points="229.93 238.69 322.27 245.59 317.16 309.04 229.93 311.58 229.93 238.69"/><polygon class="cls-10" points="258.32 216.44 229.93 238.69 322.27 245.59 337.36 222.82 258.32 216.44"/><polygon class="cls-10" points="125.05 226.91 194.37 218.47 229.93 238.69 152.93 251.22 125.05 226.91"/><polygon class="cls-10" points="246.81 257.62 246.81 357.29 210.74 353.58 195.05 351.99 190.27 351.49 174.59 349.88 152.93 347.65 152.93 251.22 229.92 256.45 246.81 257.62"/><polygon class="cls-10" points="322.27 245.59 322.27 342.8 293.36 348.35 279.3 351.05 246.81 357.29 246.81 257.62 322.27 245.59"/><polygon class="cls-11" points="322.27 245.59 322.27 342.8 293.36 348.35 279.3 351.05 246.81 357.29 246.81 257.62 322.27 245.59"/><polygon class="cls-10" points="125.05 272.19 152.93 251.22 246.81 257.62 232.99 280.89 125.05 272.19"/><polygon class="cls-12" points="125.05 272.19 152.93 251.22 246.81 257.62 232.99 280.89 125.05 272.19"/><polygon class="cls-10" points="322.27 245.59 246.81 257.62 271.37 279.62 352.2 266.06 322.27 245.59"/><polygon class="cls-12" points="322.27 245.59 246.81 257.62 271.37 279.62 352.2 266.06 322.27 245.59"/><polygon class="cls-12" points="293.36 348.35 279.3 351.05 279.3 330.27 292.47 326.95 293.36 348.35"/><polygon class="cls-12" points="210.74 339.85 210.74 353.58 195.05 351.99 195.05 339.85 210.74 339.85"/><polygon class="cls-12" points="190.27 344.18 190.27 351.49 174.59 349.88 174.59 344.18 190.27 344.18"/><path class="cls-4" d="M415.4,428.67c-10.75,13.75-46.25,4.25-46.25,4.25L342.77,405.4l-3.58-3.73,7-13s2,.66,5.34,1.82C369.21,396.67,424.45,417.1,415.4,428.67Z" transform="translate(-178.03 -96.11)"/><path class="cls-3" d="M414.4,426.67c-10.75,13.75-46.25,4.25-46.25,4.25L341.77,403.4l-3.58-3.73,7-13s2,.66,5.34,1.82C368.21,394.67,423.45,415.1,414.4,426.67Z" transform="translate(-178.03 -96.11)"/><path class="cls-4" d="M350.49,388.49c-1.46,4.2-5.17,10.42-8.76,14.91l-3.58-3.73,7-13S347.16,387.33,350.49,388.49Z" transform="translate(-178.03 -96.11)"/><path class="cls-5" d="M263.15,233s-26.25,10-26.5,38a459.69,459.69,0,0,0,3,54s-7.5,41.75,13.75,53.75,41,22,41,22,34,5.5,38.12,7.25,18.66-20.75,16.41-24.5-33.16-13-36.83-19.25-12.71-10.46-12.71-10.46-9.22-6.29-9.59-11.54,2.35-9,3.12-11.25,3.56-24.25,3.56-24.25S311.4,228.67,263.15,233Z" transform="translate(-178.03 -96.11)"/><path class="cls-4" d="M275.15,325.67s-35.5,4-32.75,16.5C242.4,342.17,255.89,329.56,275.15,325.67Z" transform="translate(-178.03 -96.11)"/><path class="cls-4" d="M275.15,330.67S255,345.42,258.7,346.42,275.15,330.67,275.15,330.67Z" transform="translate(-178.03 -96.11)"/><path class="cls-4" d="M284.15,336.67s-5.75,10.34-2.5,9.8S284.15,336.67,284.15,336.67Z" transform="translate(-178.03 -96.11)"/><ellipse class="cls-1" cx="422.77" cy="689.27" rx="26.93" ry="4.55"/></svg>