<svg id="aea587a3-a3e8-4e0f-8220-a5d1e661ad74" xmlns="http://www.w3.org/2000/svg" viewBox="0 0 909.2 655.83"><defs><style>.cls-1{fill:#3f3d56;}.cls-2{fill:#2ab4ff;}.cls-3{fill:#ffb9b9;}.cls-4{fill:#945a61;}.cls-5{fill:#2f2e41;}.cls-6{fill:#a0616a;}.cls-7{fill:#4e507a;}.cls-8{fill:#ffb8b8;}.cls-9{fill:#d0cde1;}.cls-10{fill:#575a89;}</style></defs><title>ho we are</title><g id="ground"><ellipse class="cls-1" cx="381.41" cy="563.83" rx="364" ry="6"/><ellipse class="cls-1" cx="508.81" cy="579.33" rx="400.4" ry="15.5"/><ellipse class="cls-1" cx="434.91" cy="602.33" rx="196.5" ry="15.5"/><ellipse class="cls-1" cx="718.91" cy="620.83" rx="87.5" ry="8"/><ellipse class="cls-1" cx="598.91" cy="647.83" rx="41.5" ry="8"/><ellipse class="cls-1" cx="260.91" cy="613.83" rx="41.5" ry="8"/><path class="cls-2" d="M758.78,611c.92,31.55-17.52,43.12-40.66,43.8l-1.61,0c-1.07,0-2.13,0-3.19-.05-20.92-.87-37.49-12-38.35-41.33-.88-30.37,36.82-69.83,39.64-72.75h0l.16-.17S757.86,579.48,758.78,611Z" transform="translate(0 -30.13)"/><path class="cls-1" d="M716.45,650.05l14.7-21.86L716.48,652.4l0,2.46c-1.07,0-2.13,0-3.19-.05l.73-31.62,0-.24,0-.05.07-3L698,596.54l16.08,21.14.06.63.55-23.89-13.9-24.23,13.94,20-.15-49.49v0l.92,39,12.67-15.84-12.63,19.2.28,21.37,11.66-20.85-11.62,24,.16,11.89,17-29.06-16.9,33.2Z" transform="translate(0 -30.13)"/><path class="cls-2" d="M222.78,564c.92,31.55-17.52,43.12-40.66,43.8l-1.61,0c-1.07,0-2.13,0-3.19-.05-20.92-.87-37.49-12-38.35-41.33-.88-30.37,36.82-69.83,39.64-72.75h0l.16-.17S221.86,532.48,222.78,564Z" transform="translate(0 -30.13)"/><path class="cls-1" d="M180.45,603.05l14.7-21.86L180.48,605.4l0,2.46c-1.07,0-2.13,0-3.19-.05l.73-31.62,0-.24,0-.05.07-3L162,549.54l16.08,21.14.06.63.55-23.89-13.9-24.23,13.94,20-.15-49.49v0l.92,39,12.67-15.84-12.63,19.2.28,21.37,11.66-20.85-11.62,24,.16,11.89L197,543.43l-16.9,33.2Z" transform="translate(0 -30.13)"/><path class="cls-2" d="M623.29,655.53c.55,18.52-10.28,25.31-23.86,25.71h-.94c-.63,0-1.26,0-1.87,0-12.29-.51-22-7-22.52-24.26-.52-17.83,21.61-41,23.27-42.7h0l.1-.1S622.75,637,623.29,655.53Z" transform="translate(0 -30.13)"/><path class="cls-1" d="M598.45,678.43l8.63-12.83-8.61,14.21,0,1.44c-.63,0-1.26,0-1.87,0l.42-18.56v-.14l0,0,0-1.75L587.64,647l9.44,12.4,0,.37.32-14-8.16-14.22,8.19,11.76-.09-29v0l.55,22.89,7.44-9.3-7.42,11.27.16,12.55L605,639.43l-6.82,14.08.09,7,9.95-17.06-9.92,19.49Z" transform="translate(0 -30.13)"/></g><path id="arbol_derecha" data-name="arbol derecha" class="cls-1" d="M819.45,581.81l74.07-110.15-73.92,122,.16,12.39q-8.12.06-16.07-.27l3.68-159.32-.1-1.23.13-.23.35-15.06L726.64,312.17l81,106.5.29,3.19,2.77-120.38L740.66,179.39l70.26,100.95L810.19,31v-.83l0,.81,4.65,196.55,63.85-79.84-63.64,96.77,1.4,107.67L875.22,247,816.68,367.92l.78,59.87L902.9,281.41,817.72,448.68Z" transform="translate(0 -30.13)"/><path id="arbol_izquierda" data-name="arbol izquierda" class="cls-1" d="M63.16,577.54l50.4-74.95-50.3,83,.1,8.44q-5.52,0-10.93-.19l2.5-108.41-.07-.84.1-.16.24-10.24L0,394.06l55.13,72.47.2,2.17,1.88-81.91L9.54,303.7l47.81,68.7-.5-169.7v-.56l0,.55L60,336.43l43.45-54.32L60.17,348l.95,73.26,40-71.5L61.27,432l.53,40.74,58.14-99.6L62,487Z" transform="translate(0 -30.13)"/><g id="new_yo" data-name="new yo"><path class="cls-3" d="M553.7,149.09s-2.78,10.22,2.79,13.94,7.44,21.38,7.44,21.38l-11.15,30.68L523,220.66l-11.16-21.37V167.68s3.72-15.8,2.79-20.45S553.7,149.09,553.7,149.09Z" transform="translate(0 -30.13)"/><path class="cls-4" d="M553.7,149.09s-2.78,10.22,2.79,13.94,7.44,21.38,7.44,21.38l-11.15,30.68L523,220.66l-11.16-21.37V167.68s3.72-15.8,2.79-20.45S553.7,149.09,553.7,149.09Z" transform="translate(0 -30.13)"/><path class="cls-5" d="M583.45,324.78l24.17,4.64s1.86,27,0,33.47-3.72,13.94-1.86,15.8-8.37,49.27-7.44,52.05,2.79,11.16,1.86,16.74-3.72,3.71-1.86,9.29,3.72,6.51,1.86,10.23S589,560.88,586.24,561.81s-27.89,1.86-27.89,0,8.37-15.8,5.58-19.52.93-66.93.93-69.72,5.58-7.43,2.79-9.29-4.65-3.72-3.72-6.51,2.79-3.72.93-6.5-1.86-58.57-8.37-60.43c0,0-8.36,40.9-5.57,51.13s-.93,13.94-.93,13.94l13,11.16-17.66,33.46-18.59-21.38s0-5.58-3.72-6.5-5.58-1.86-5.58-4.65-6.5-20.45-6.5-20.45-18.6-58.57-9.3-88.31,12.88-28.76,12.88-28.76Z" transform="translate(0 -30.13)"/><polygon class="cls-6" points="598.32 487.07 608.55 498.22 604.83 528.9 596.47 528.9 583.45 500.08 598.32 487.07"/><path class="cls-5" d="M604.83,537.64s-3.72,8.37-6.51,6.51-3.71-4.65-7.9-4.65-7.9.93-7,2.79,12.08,22.31,12.08,22.31a26.23,26.23,0,0,1,0,22.31c-5.57,12.08,14.88,18.59,18.6,5.58s4.64-27.89,3.71-33.47,4.65-34.39,4.65-34.39-15-6.92-19.59-7.18C602.9,517.45,606.69,533.93,604.83,537.64Z" transform="translate(0 -30.13)"/><path class="cls-5" d="M579.73,558.09l3.72,11.16s0,11.15,3.72,16.73,7.44,17.66-7.44,18.59-21.38-4.65-21.38-4.65,2.79-7.43,0-10.22,0-8.37,0-8.37L561.14,559Z" transform="translate(0 -30.13)"/><path class="cls-5" d="M554.63,465.14H563L604.83,520s-7.44,17.66-18.59,19.52c0,0-1.86-.93-10.23-6.5s-30.67-33.47-30.67-33.47l-2.79-15.8Z" transform="translate(0 -30.13)"/><circle class="cls-6" cx="534.18" cy="101.3" r="29.75"/><path class="cls-2" d="M570.44,169.54l-9.3-3.72s-.93,32.54-18.59,32.54-36.25-4.65-36.25-14-14.88,16.73-14.88,16.73,13.95,93,13,93.89,10.22,50.2,10.22,50.2,47.41,1.85,63.21-4.65S598.32,322,598.32,322l-6.5-81.8L578.8,177Z" transform="translate(0 -30.13)"/><path class="cls-7" d="M554.64,161.17s3.71-3.71,9.29,0,40,12.09,40,14.88v35.32s.93,5.58-1.86,9.29-9.29,17.67-5.58,24.17,17.67,81.8,14.88,91.1-10.23,17.66-10.23,17.66-40-84.59-40-108.76.39-53.82.39-53.82Z" transform="translate(0 -30.13)"/><path class="cls-7" d="M595.53,177h8.37s31.61,60.42,31.61,72.5-20.45,79-22.31,79.94-7.44-10.22-7.44-10.22L601.11,282s9.3-22.31,6.51-26-16.73-32.54-16.73-32.54Z" transform="translate(0 -30.13)"/><path class="cls-7" d="M513.25,161.17s-10.67,7.44-12.53,10.23S471,190,470,193.71,491.42,229,491.42,229s9.3,52.06,9.3,55.77,3.72,66.93,3.72,66.93,38.11,11.16,38.11,4.65.93-99.46-4.65-119.91S513.25,161.17,513.25,161.17Z" transform="translate(0 -30.13)"/><path class="cls-6" d="M519.31,353.59s31.61,42.76,14.87,41.83-27.88-37.18-27.88-37.18Z" transform="translate(0 -30.13)"/><path class="cls-7" d="M481.2,190.92,470,193.71s-9.29,81.8-3.71,93,35.32,83.66,35.32,80.87,26.17-7.75,25.17-10.38-6.58-13.78-8.44-17.5-4.65-8.37-3.72-13-10.22-24.54-10.22-24.54-2.79-11.71-3.72-17.29-9.3-66.92-9.3-66.92Z" transform="translate(0 -30.13)"/><path class="cls-5" d="M563.35,108.4a7.38,7.38,0,0,0-3.37-4.13,15.52,15.52,0,0,0-.71-5.46C557.42,93.66,553,94,548.9,91.67c-1.8-1-1.69-1.86-2.62-3.48A13.38,13.38,0,0,0,541,83.1a19.63,19.63,0,0,0-8.6-3.43c-6.6-.42-11.66,5.42-18,7.3-2.78.82-5.77.86-8.56,1.64s-5.59,2.65-6,5.36c-.2,1.26.14,2.54-.05,3.8-.39,2.49-2.71,4.23-4.27,6.28-3.44,4.54-3,10.94-.29,15.87a21.4,21.4,0,0,0,2,2.92,17.28,17.28,0,0,0,2.09,6.68c2.75,4.93,7.48,8.61,12.43,11.67a26.15,26.15,0,0,1-.74-5,3.34,3.34,0,0,1,.23-1.65c.55-1.08,2-1.37,3.11-2a7.24,7.24,0,0,0,3.27-6.43c.06-2.49-.49-5-.22-7.45a4,4,0,0,1,1.48-3,5.32,5.32,0,0,1,2.79-.62c4.71-.19,9.63-.27,13.78-2.36a20.82,20.82,0,0,1,4.29-2c3.53-.87,7.13,1.46,9.17,4.31s3,6.24,4.92,9.18,5.12,5.57,8.74,5.22a1.5,1.5,0,0,0,1.09-.46,1.52,1.52,0,0,0,.2-.86l.2-13.06A18.58,18.58,0,0,0,563.35,108.4Z" transform="translate(0 -30.13)"/></g><g id="no_yo" data-name="no yo"><polygon class="cls-8" points="470.51 534.14 473.91 557.95 490.92 556.25 489.22 531.59 470.51 534.14"/><polygon class="cls-8" points="389.71 534.14 386.31 557.95 369.3 556.25 371 531.59 389.71 534.14"/><path class="cls-5" d="M365.05,317.63s-15.31,17.86-11.91,45.93,9.36,91.85,9.36,91.85l4.25,113.11,27.22-1.7,4.25-96.11,13.61-77.39,36.57,90.15s17.86,84.2,18.71,84.2,25.51-2.55,25.51-2.55l-11.91-99.51S462,321,451,318.48,365.05,317.63,365.05,317.63Z" transform="translate(0 -30.13)"/><path class="cls-5" d="M492.62,583s-15.31-10.21-21.26,1.7-.85,20.41-.85,20.41,5.1,3.4,2.55,6.8-3.4,25.52,18.71,22.11,11.06-26.36,11.06-26.36Z" transform="translate(0 -30.13)"/><path class="cls-5" d="M367.6,583s15.31-10.21,21.26,1.7.85,20.41.85,20.41-5.1,3.4-2.55,6.8,3.4,25.52-18.71,22.11-11.05-26.36-11.05-26.36Z" transform="translate(0 -30.13)"/><path class="cls-8" d="M385.89,152.21s7.65,21.27,1.7,33.17,9.35,25.52,9.35,25.52,40-20.41,34.87-30.62S418.2,156.47,419.9,148Z" transform="translate(0 -30.13)"/><circle class="cls-8" cx="400.77" cy="102.95" r="27.21"/><path class="cls-9" d="M381.21,184.11s27.31,22.72,47.67-9.48l21.22,12,11,129.27s-62.08,35.72-91.85,5.1l4.25-119.91Z" transform="translate(0 -30.13)"/><polygon class="cls-10" points="389.78 141.25 351.44 166.74 365.05 229.67 347.19 327.48 376.11 284.1 389.78 141.25"/><path class="cls-10" d="M423.67,164.28l9.42,6.22,38.27,13.61-6,105.46,16.16,68-23,11.91S454.35,337.19,428,321,417.65,169.12,423.67,164.28Z" transform="translate(0 -30.13)"/><path class="cls-8" d="M360,329.54,371,337.19s-14,14.88-16.58,12.33a6.94,6.94,0,0,1-2.13-5.52l-2.55-6Z" transform="translate(0 -30.13)"/><path class="cls-8" d="M433.44,327.88l-3.75,5.91s-11.06,5.1-8.51,8.5,23.81,11.06,28.07,3.41L453.5,338Z" transform="translate(0 -30.13)"/><path class="cls-10" d="M356.54,196l-6,.85-9.78,63.36s-3.83,11.49.43,38.7,8.46,44.94,8.46,44.94l18.75-13.47L360,308.28,371,227.48Z" transform="translate(0 -30.13)"/><path class="cls-10" d="M457.75,182.41l13.61,1.7s15.31,16.16,17.86,33.17,1.7,65.48,1.7,65.48L451.8,344.85l-21.26-15.31,29.76-52.73-14.46-62.94Z" transform="translate(0 -30.13)"/><path class="cls-5" d="M426.72,108.46a31.8,31.8,0,0,0-18.08-13.82l-5.53,4.42,2.15-5.16a29.44,29.44,0,0,0-5.47-.31l-5,6.39,2.06-6.17a31.49,31.49,0,0,0-21.73,12.92c-6.33,9.13-7.4,21.83-1.17,31,1.71-5.26,3.78-10.19,5.49-15.44a15.69,15.69,0,0,0,4,0l2.08-4.85.59,4.64c6.44-.56,16-1.79,22.12-2.92l-.6-3.57,3.56,3c1.87-.43,3-.83,2.89-1.12,4.55,7.32,9,12,13.6,19.33C429.48,126.49,432.53,117.89,426.72,108.46Z" transform="translate(0 -30.13)"/><ellipse class="cls-8" cx="425.21" cy="102.1" rx="1.84" ry="3.68"/></g></svg>